<?xml version="1.0" encoding="UTF-8"?>
<svg width="329px" height="512px" viewBox="0 0 329 512" version="1.1" xmlns="http://www.w3.org/2000/svg" xmlns:xlink="http://www.w3.org/1999/xlink">
    <!-- Generator: Sketch 53.2 (72643) - https://sketchapp.com -->
    <title>app</title>
    <desc>Created with Sketch.</desc>
    <g id="Page-2" stroke="none" stroke-width="1" fill="none" fill-rule="evenodd">
        <g id="app" fill-rule="nonzero">
            <path d="M292.402344,504.5 L35.628906,504.5 C20.09375,504.5 7.5,491.90625 7.5,476.371094 L7.5,35.628906 C7.5,20.09375 20.09375,7.5 35.628906,7.5 L292.398438,7.5 C307.933594,7.5 320.53125,20.09375 320.53125,35.628906 L320.53125,476.371094 C320.53125,491.90625 307.9375,504.5 292.402344,504.5 L292.402344,504.5 Z" id="Path" fill="#FAB76A"></path>
            <path d="M320.527344,35.632812 L320.527344,476.367188 C320.527344,491.902344 307.941406,504.5 292.402344,504.5 L261.621094,504.5 C277.15625,504.5 289.753906,491.902344 289.753906,476.367188 L289.753906,35.632812 C289.753906,20.097656 277.15625,7.5 261.621094,7.5 L292.402344,7.5 C307.941406,7.5 320.527344,20.097656 320.527344,35.632812 Z" id="Path" fill="#FFB509"></path>
            <path d="M292.402344,504.5 L35.628906,504.5 C20.09375,504.5 7.5,491.90625 7.5,476.371094 L7.5,434.539062 L320.53125,434.539062 L320.53125,476.371094 C320.53125,491.90625 307.9375,504.5 292.402344,504.5 Z" id="Path" fill="#838383"></path>
            <path d="M320.53125,77.460938 L7.5,77.460938 L7.5,35.628906 C7.5,20.09375 20.09375,7.5 35.628906,7.5 L292.402344,7.5 C307.9375,7.5 320.53125,20.09375 320.53125,35.628906 L320.53125,77.460938 Z" id="Path" fill="#838383"></path>
            <path d="M320.527344,434.539062 L320.527344,476.367188 C320.527344,491.902344 307.941406,504.5 292.402344,504.5 L261.558594,504.5 C277.097656,504.5 289.683594,491.902344 289.683594,476.367188 L289.683594,434.539062 L320.527344,434.539062 Z" id="Path" fill="#5A5A5A"></path>
            <path d="M320.527344,35.632812 L320.527344,77.460938 L289.683594,77.460938 L289.683594,35.632812 C289.683594,20.097656 277.097656,7.5 261.558594,7.5 L292.402344,7.5 C307.941406,7.5 320.527344,20.097656 320.527344,35.632812 Z" id="Path" fill="#5A5A5A"></path>
            <path d="M278.753906,223.902344 L49.277344,223.902344 C43.640625,223.902344 39.070312,219.335938 39.070312,213.695312 L39.070312,127.273438 C39.070312,121.636719 43.640625,117.070312 49.277344,117.070312 L278.753906,117.070312 C284.390625,117.070312 288.960938,121.636719 288.960938,127.273438 L288.960938,213.695312 C288.960938,219.332031 284.390625,223.902344 278.753906,223.902344 Z" id="Path" fill="#92D2F2"></path>
            <path d="M288.960938,127.269531 L288.960938,213.691406 C288.960938,219.328125 284.386719,223.902344 278.753906,223.902344 L251.21875,223.902344 C256.855469,223.902344 261.429688,219.328125 261.429688,213.691406 L261.429688,127.269531 C261.429688,121.632812 256.855469,117.070312 251.21875,117.070312 L278.753906,117.070312 C284.386719,117.070312 288.960938,121.632812 288.960938,127.269531 L288.960938,127.269531 Z" id="Path" fill="#AEE3FD"></path>
            <path d="M63.203125,223.28125 L133.671875,152.847656 C135.714844,150.804688 139.054688,150.90625 140.96875,153.0625 L203.273438,223.28125 L63.203125,223.28125 Z" id="Path" fill="#57AEAF"></path>
            <path d="M151.445312,223.28125 L207.769531,166.984375 C209.808594,164.941406 213.148438,165.042969 215.066406,167.203125 L264.824219,223.28125 L151.445312,223.28125 Z" id="Path" fill="#57AEAF"></path>
            <path d="M143.453125,32.847656 L122.890625,32.847656 C118.75,32.847656 115.394531,36.203125 115.394531,40.347656 C115.394531,44.488281 118.75,47.847656 122.890625,47.847656 L143.453125,47.847656 C147.59375,47.847656 150.953125,44.488281 150.953125,40.347656 C150.953125,36.203125 147.59375,32.847656 143.453125,32.847656 Z" id="Path" fill="#000000"></path>
            <path d="M205.140625,32.847656 L167.179688,32.847656 C163.039062,32.847656 159.679688,36.203125 159.679688,40.347656 C159.679688,44.488281 163.039062,47.847656 167.179688,47.847656 L205.140625,47.847656 C209.28125,47.847656 212.636719,44.488281 212.636719,40.347656 C212.636719,36.203125 209.28125,32.847656 205.140625,32.847656 Z" id="Path" fill="#000000"></path>
            <path d="M49.277344,124.566406 L105.839844,124.566406 C109.980469,124.566406 113.335938,121.210938 113.335938,117.070312 C113.335938,112.925781 109.980469,109.570312 105.839844,109.570312 L49.277344,109.570312 C39.511719,109.570312 31.570312,117.511719 31.570312,127.273438 L31.570312,213.695312 C31.570312,223.460938 39.511719,231.402344 49.277344,231.402344 L278.753906,231.402344 C288.515625,231.402344 296.460938,223.460938 296.460938,213.695312 L296.460938,127.273438 C296.460938,117.511719 288.515625,109.570312 278.753906,109.570312 L151.445312,109.570312 C147.304688,109.570312 143.945312,112.925781 143.945312,117.070312 C143.945312,121.210938 147.304688,124.566406 151.445312,124.566406 L278.753906,124.566406 C280.246094,124.566406 281.460938,125.78125 281.460938,127.273438 L281.460938,213.695312 C281.460938,215.191406 280.246094,216.40625 278.753906,216.40625 L268.75,216.40625 L220.675781,162.226562 C218.394531,159.65625 215.121094,158.125 211.6875,158.023438 C208.269531,157.914062 204.898438,159.25 202.46875,161.679688 L179.242188,184.898438 L146.578125,148.089844 C144.300781,145.519531 141.027344,143.988281 137.59375,143.882812 C134.148438,143.777344 130.800781,145.113281 128.371094,147.542969 L59.476562,216.402344 L49.277344,216.402344 C47.78125,216.402344 46.570312,215.1875 46.570312,213.695312 L46.570312,127.273438 C46.570312,125.78125 47.78125,124.566406 49.277344,124.566406 Z M137.109375,160.011719 L177.832031,205.910156 C180.582031,209.007812 185.324219,209.289062 188.421875,206.542969 C191.457031,203.84375 191.78125,199.242188 189.203125,196.144531 L211.203125,174.148438 L248.699219,216.402344 L80.691406,216.402344 L137.109375,160.011719 Z" id="Shape" fill="#000000"></path>
            <path d="M292.402344,0 L35.628906,0 C15.984375,0 2.93098879e-14,15.980469 2.93098879e-14,35.628906 L2.93098879e-14,321.699219 C2.93098879e-14,325.839844 3.359375,329.195312 7.5,329.195312 C11.640625,329.195312 14.996094,325.839844 14.996094,321.699219 L14.996094,84.960938 L313.03125,84.960938 L313.03125,427.039062 L14.996094,427.039062 L14.996094,369.84375 C14.996094,365.699219 11.640625,362.34375 7.5,362.34375 C3.359375,362.34375 2.84217094e-14,365.699219 2.84217094e-14,369.84375 L2.84217094e-14,476.371094 C2.84217094e-14,496.015625 15.984375,512 35.628906,512 L292.398438,512 C312.046875,512 328.027344,496.019531 328.027344,476.371094 L328.027344,35.628906 C328.027344,15.980469 312.046875,-2.84217094e-14 292.402344,-2.84217094e-14 L292.402344,0 Z M313.03125,476.371094 C313.03125,487.746094 303.777344,497.003906 292.398438,497.003906 L35.628906,497.003906 C24.253906,497.003906 14.996094,487.746094 14.996094,476.371094 L14.996094,442.039062 L313.03125,442.039062 L313.03125,476.371094 Z M313.03125,69.960938 L14.996094,69.960938 L14.996094,35.628906 C14.996094,24.253906 24.253906,14.996094 35.628906,14.996094 L292.398438,14.996094 C303.777344,14.996094 313.03125,24.253906 313.03125,35.628906 L313.03125,69.960938 Z" id="Shape" fill="#000000"></path>
            <path d="M141.949219,478.148438 L186.082031,478.148438 C190.222656,478.148438 193.582031,474.792969 193.582031,470.648438 C193.582031,466.507812 190.222656,463.148438 186.082031,463.148438 L141.949219,463.148438 C137.808594,463.148438 134.449219,466.507812 134.449219,470.648438 C134.449219,474.792969 137.808594,478.148438 141.949219,478.148438 Z" id="Path" fill="#000000"></path>
            <path d="M114.992188,254.519531 L48.667969,254.519531 C44.527344,254.519531 41.167969,257.875 41.167969,262.019531 C41.167969,266.160156 44.527344,269.519531 48.667969,269.519531 L114.992188,269.519531 C119.132812,269.519531 122.492188,266.160156 122.492188,262.019531 C122.492188,257.875 119.132812,254.519531 114.992188,254.519531 L114.992188,254.519531 Z" id="Path" fill="#000000"></path>
            <path d="M181.316406,269.519531 C185.457031,269.519531 188.816406,266.160156 188.816406,262.019531 C188.816406,257.875 185.457031,254.519531 181.316406,254.519531 L155.636719,254.519531 C151.496094,254.519531 148.140625,257.875 148.140625,262.019531 C148.140625,266.160156 151.496094,269.519531 155.636719,269.519531 L181.316406,269.519531 Z" id="Path" fill="#000000"></path>
            <path d="M279.363281,254.519531 L218.804688,254.519531 C214.664062,254.519531 211.308594,257.875 211.308594,262.019531 C211.308594,266.160156 214.664062,269.519531 218.804688,269.519531 L279.363281,269.519531 C283.503906,269.519531 286.863281,266.160156 286.863281,262.019531 C286.863281,257.875 283.503906,254.519531 279.363281,254.519531 L279.363281,254.519531 Z" id="Path" fill="#000000"></path>
            <path d="M48.664062,312.109375 L90.953125,312.109375 C95.09375,312.109375 98.453125,308.753906 98.453125,304.613281 C98.453125,300.46875 95.09375,297.113281 90.953125,297.113281 L48.664062,297.113281 C44.523438,297.113281 41.167969,300.46875 41.167969,304.613281 C41.167969,308.753906 44.523438,312.109375 48.664062,312.109375 Z" id="Path" fill="#000000"></path>
            <path d="M113.011719,304.613281 C113.011719,308.753906 116.371094,312.109375 120.511719,312.109375 L197.175781,312.109375 C201.320312,312.109375 204.675781,308.753906 204.675781,304.613281 C204.675781,300.46875 201.320312,297.113281 197.175781,297.113281 L120.511719,297.113281 C116.371094,297.113281 113.011719,300.472656 113.011719,304.613281 Z" id="Path" fill="#000000"></path>
            <path d="M279.363281,297.113281 L232.707031,297.113281 C228.566406,297.113281 225.210938,300.46875 225.210938,304.613281 C225.210938,308.753906 228.566406,312.109375 232.707031,312.109375 L279.363281,312.109375 C283.503906,312.109375 286.863281,308.753906 286.863281,304.613281 C286.863281,300.46875 283.503906,297.113281 279.363281,297.113281 Z" id="Path" fill="#000000"></path>
            <path d="M48.664062,351.296875 L102.246094,351.296875 C106.386719,351.296875 109.746094,347.941406 109.746094,343.800781 C109.746094,339.65625 106.386719,336.300781 102.246094,336.300781 L48.664062,336.300781 C44.523438,336.300781 41.167969,339.65625 41.167969,343.800781 C41.167969,347.941406 44.523438,351.296875 48.664062,351.296875 Z" id="Path" fill="#000000"></path>
            <path d="M234.769531,343.800781 C234.769531,339.65625 231.410156,336.300781 227.269531,336.300781 L136.480469,336.300781 C132.339844,336.300781 128.980469,339.65625 128.980469,343.800781 C128.980469,347.941406 132.339844,351.296875 136.480469,351.296875 L227.269531,351.296875 C231.410156,351.296875 234.769531,347.941406 234.769531,343.800781 Z" id="Path" fill="#000000"></path>
            <path d="M279.363281,336.300781 L258.527344,336.300781 C254.386719,336.300781 251.027344,339.65625 251.027344,343.800781 C251.027344,347.941406 254.386719,351.296875 258.527344,351.296875 L279.363281,351.296875 C283.503906,351.296875 286.863281,347.941406 286.863281,343.800781 C286.863281,339.65625 283.503906,336.300781 279.363281,336.300781 Z" id="Path" fill="#000000"></path>
            <path d="M48.664062,393.890625 L140.945312,393.890625 C145.085938,393.890625 148.445312,390.535156 148.445312,386.394531 C148.445312,382.25 145.085938,378.894531 140.945312,378.894531 L48.664062,378.894531 C44.523438,378.894531 41.167969,382.25 41.167969,386.394531 C41.167969,390.535156 44.523438,393.890625 48.664062,393.890625 Z" id="Path" fill="#000000"></path>
            <path d="M172.199219,378.894531 C168.058594,378.894531 164.703125,382.25 164.703125,386.394531 C164.703125,390.535156 168.058594,393.890625 172.199219,393.890625 L212.386719,393.890625 C216.527344,393.890625 219.886719,390.535156 219.886719,386.394531 C219.886719,382.25 216.527344,378.894531 212.386719,378.894531 L172.199219,378.894531 Z" id="Path" fill="#000000"></path>
            <path d="M240.667969,393.890625 L279.363281,393.890625 C283.503906,393.890625 286.863281,390.535156 286.863281,386.394531 C286.863281,382.25 283.503906,378.894531 279.363281,378.894531 L240.667969,378.894531 C236.523438,378.894531 233.167969,382.25 233.167969,386.394531 C233.167969,390.535156 236.523438,393.890625 240.667969,393.890625 L240.667969,393.890625 Z" id="Path" fill="#000000"></path>
        </g>
    </g>
</svg>