<?xml version="1.0" encoding="UTF-8"?>
<svg width="358px" height="512px" viewBox="0 0 358 512" version="1.1" xmlns="http://www.w3.org/2000/svg" xmlns:xlink="http://www.w3.org/1999/xlink">
    <!-- Generator: Sketch 53.2 (72643) - https://sketchapp.com -->
    <title>passport</title>
    <desc>Created with Sketch.</desc>
    <g id="Page-2" stroke="none" stroke-width="1" fill="none" fill-rule="evenodd">
        <g id="passport" fill-rule="nonzero">
            <g id="Group" transform="translate(8.000000, 8.000000)">
                <path d="M301.844,496 L10.156,496 C4.633,496 0.156,491.523 0.156,486 L0.156,10 C0.156,4.477 4.633,0 10.156,0 L301.845,0 C323.936,0 341.845,17.909 341.845,40 L341.845,456 C341.844,478.091 323.936,496 301.844,496 Z" id="Path" fill="#1B5E9B"></path>
                <path d="M301.845,478 L10.156,478 C4.633,478 0.156,473.523 0.156,468 L0.156,486 C0.156,491.523 4.633,496 10.156,496 L301.845,496 C323.936,496 341.845,478.091 341.845,456 L341.845,438 C341.845,460.091 323.936,478 301.845,478 Z" id="Path" fill="#3E8CD2"></path>
                <circle id="Oval" fill="#F2D26F" transform="translate(170.951639, 185.683639) rotate(-45.000000) translate(-170.951639, -185.683639) " cx="170.951639" cy="185.683639" r="91.5591714"></circle>
            </g>
            <g id="Group" fill="#000000">
                <path d="M77.446,496.971 L17.84,496.971 C16.458,496.971 15.335,495.847 15.335,494.466 L15.335,17.534 C15.335,16.153 16.458,15.029 17.84,15.029 L232.46,15.029 C236.611,15.029 239.975,11.664 239.975,7.514 C239.975,3.364 236.611,-7.10542736e-15 232.46,-7.10542736e-15 L17.84,-7.10542736e-15 C8.172,-7.10542736e-15 0.306,7.866 0.306,17.534 L0.306,494.466 C0.306,504.134 8.172,512 17.84,512 L77.446,512 C81.597,512 84.961,508.636 84.961,504.485 C84.961,500.334 81.597,496.971 77.446,496.971 Z" id="Path"></path>
                <path d="M310.101,0 L262.519,0 C258.368,0 255.004,3.365 255.004,7.515 C255.004,11.665 258.368,15.03 262.519,15.03 L310.101,15.03 C328.057,15.03 342.665,29.638 342.665,47.594 L342.665,464.408 C342.665,482.364 328.057,496.972 310.101,496.972 L107.505,496.972 C103.354,496.972 99.99,500.337 99.99,504.487 C99.99,508.637 103.354,512.002 107.505,512.002 L310.101,512.002 C336.344,512.002 357.694,490.652 357.694,464.409 L357.694,47.593 C357.694,21.35 336.343,7.10542736e-14 310.101,0 Z" id="Path"></path>
                <path d="M134.39,265.025 C130.874,262.826 126.235,263.892 124.034,267.41 C121.833,270.929 122.901,275.565 126.42,277.767 C142.163,287.616 160.345,292.822 179,292.822 C233.736,292.822 278.267,248.291 278.267,193.555 C278.267,138.819 233.736,94.288 179,94.288 C124.264,94.288 79.733,138.819 79.733,193.555 C79.733,216.353 87.655,238.621 102.038,256.257 C104.662,259.472 109.393,259.955 112.611,257.331 C115.827,254.708 116.308,249.974 113.685,246.758 C109.864,242.073 106.581,237.003 103.874,231.654 L136.6,231.654 C139.606,248.323 144.572,262.504 150.961,272.998 C145.186,270.962 139.627,268.302 134.39,265.025 L134.39,265.025 Z M207.056,272.971 C213.437,262.479 218.398,248.309 221.401,231.654 L254.092,231.654 C244.344,250.789 227.51,265.723 207.056,272.971 Z M148.387,193.555 C148.387,185.482 148.849,177.763 149.671,170.485 L208.33,170.485 C209.152,177.762 209.614,185.482 209.614,193.555 C209.614,201.627 209.152,209.347 208.33,216.624 L149.671,216.624 C148.848,209.347 148.387,201.627 148.387,193.555 Z M179,109.317 C189.282,109.317 200.426,127.566 206.002,155.456 L151.998,155.456 C157.574,127.566 168.718,109.317 179,109.317 Z M223.496,170.485 L260,170.485 C262.093,177.822 263.238,185.555 263.238,193.555 C263.238,201.555 262.093,209.287 260,216.624 L223.5,216.624 C224.246,209.264 224.643,201.551 224.643,193.555 C224.643,185.557 224.242,177.846 223.496,170.485 Z M254.092,155.456 L221.397,155.456 C218.393,138.801 213.433,124.629 207.052,114.138 C227.508,121.385 244.343,136.32 254.092,155.456 Z M150.959,114.134 C144.574,124.627 139.607,138.793 136.602,155.456 L103.908,155.456 C113.658,136.317 130.498,121.38 150.959,114.134 Z M98.012,216.624 C95.885,209.161 94.763,201.398 94.763,193.555 C94.763,185.555 95.908,177.823 98.001,170.485 L134.504,170.485 C133.758,177.845 133.358,185.557 133.358,193.555 C133.358,201.55 133.75,209.266 134.496,216.624 L98.012,216.624 Z M151.998,231.654 L206.002,231.654 C200.425,259.544 189.282,277.793 179,277.793 C168.718,277.793 157.574,259.544 151.998,231.654 L151.998,231.654 Z" id="Shape"></path>
                <path d="M278.267,362.772 C278.267,358.622 274.903,355.257 270.752,355.257 L87.248,355.257 C83.097,355.257 79.733,358.622 79.733,362.772 C79.733,366.922 83.097,370.287 87.248,370.287 L270.753,370.287 C274.903,370.286 278.267,366.922 278.267,362.772 L278.267,362.772 Z" id="Path"></path>
                <path d="M114.3,402.683 C110.149,402.683 106.785,406.048 106.785,410.198 C106.785,414.348 110.149,417.713 114.3,417.713 L243.7,417.713 C247.851,417.713 251.215,414.348 251.215,410.198 C251.215,406.048 247.851,402.683 243.7,402.683 L114.3,402.683 Z" id="Path"></path>
            </g>
        </g>
    </g>
</svg>