<?xml version="1.0" encoding="UTF-8"?>
<svg width="512px" height="502px" viewBox="0 0 512 502" version="1.1" xmlns="http://www.w3.org/2000/svg" xmlns:xlink="http://www.w3.org/1999/xlink">
    <!-- Generator: Sketch 53.2 (72643) - https://sketchapp.com -->
    <title>piggy-bank</title>
    <desc>Created with Sketch.</desc>
    <g id="Page-2" stroke="none" stroke-width="1" fill="none" fill-rule="evenodd">
        <g id="piggy-bank" fill-rule="nonzero">
            <path d="M490.171,273.926 L469.199,267.209 C464.181,265.602 460.283,261.639 458.702,256.613 C434.569,179.871 344.954,144.628 254.751,144.628 C149.219,144.628 63.668,192.853 63.668,299.35 C63.668,360.728 93.772,403.718 140.283,428.547 C141.427,429.158 142.242,430.243 142.487,431.516 L152.907,485.64 C153.872,490.739 158.328,494.43 163.517,494.43 L198.704,494.43 C203.893,494.43 208.349,490.739 209.314,485.64 L215.01,455.549 C215.43,453.329 217.499,451.833 219.743,452.094 C231.092,453.412 242.792,454.073 254.75,454.073 C270.733,454.073 286.696,452.893 302.282,450.537 C304.572,450.191 306.731,451.697 307.162,453.973 L313.156,485.641 C314.121,490.74 318.577,494.431 323.766,494.431 L358.953,494.431 C364.142,494.431 368.598,490.74 369.563,485.641 L380.386,428.336 C380.63,427.042 381.462,425.94 382.631,425.332 C410.252,410.971 433.103,391.214 447.677,366.026 C449.619,362.669 452.69,360.112 456.384,358.929 L490.172,348.106 C498.738,345.362 504.55,337.398 504.55,328.404 L504.55,293.628 C504.549,284.633 498.737,276.669 490.171,273.926 Z" id="Path" fill="#F5669B"></path>
            <g id="Group" transform="translate(63.000000, 128.000000)" fill="#E8679C">
                <path d="M438.914,155.556 C438.002,153.923 436.882,152.413 435.566,151.082 C435.538,151.054 435.513,151.022 435.484,150.994 C433.208,148.718 430.383,146.955 427.171,145.926 L411.624,140.946 L411.624,159.235 C411.624,181.956 397.147,202.152 375.629,209.45 L375.629,209.45 C365.844,212.584 357.384,218.784 351.185,226.978 C343.595,237.012 334.575,246.028 324.409,254.031 C312.425,263.465 304.341,276.965 302.031,292.04 C300.384,302.79 299.107,317.241 298.294,325.369 C297.668,331.62 292.413,336.381 286.13,336.381 L268.714,336.381 C263.525,336.381 259.069,332.69 258.104,327.591 L252.11,292.942 C251.679,290.666 249.521,289.16 247.231,289.506 C231.646,291.861 207.734,293.042 191.751,293.042 C179.793,293.042 158.158,292.381 146.809,291.063 C144.565,290.802 142.496,292.298 142.075,294.519 L136.379,326.597 C135.414,331.696 130.958,335.387 125.769,335.387 L108.465,335.387 C103.276,335.387 98.82,331.696 97.855,326.597 L89.422,276.447 C89.177,275.174 88.362,274.088 87.219,273.478 C44.954,250.916 6.308,207.392 1.416,154.667 C1.416,154.668 1.416,154.669 1.416,154.67 C1.3,155.964 1.198,157.268 1.107,158.58 C1.105,158.606 1.104,158.632 1.102,158.658 C1.093,158.788 1.085,158.918 1.077,159.047 C0.999,160.227 0.931,161.414 0.875,162.608 C0.852,163.104 0.836,163.605 0.818,164.103 C0.783,165.014 0.747,165.924 0.724,166.844 C0.69,168.335 0.667,169.835 0.667,171.35 C0.667,179.022 1.137,186.407 2.051,193.505 C3.171,202.201 4.963,210.462 7.366,218.298 C7.497,218.726 7.634,219.151 7.769,219.577 C8.103,220.631 8.45,221.681 8.809,222.726 C8.952,223.143 9.094,223.561 9.24,223.976 C10.228,226.766 11.298,229.498 12.446,232.173 C12.568,232.457 12.689,232.741 12.813,233.024 C13.379,234.318 13.961,235.601 14.564,236.868 C14.664,237.078 14.768,237.285 14.868,237.494 C15.43,238.66 16.011,239.817 16.605,240.967 C16.707,241.164 16.807,241.363 16.91,241.56 C17.558,242.794 18.227,244.013 18.911,245.22 C19.06,245.482 19.21,245.743 19.361,246.004 C21.576,249.851 23.97,253.558 26.536,257.127 C26.781,257.468 27.031,257.806 27.28,258.144 C27.903,258.993 28.536,259.834 29.178,260.667 C29.431,260.995 29.682,261.324 29.938,261.65 C30.807,262.755 31.687,263.85 32.59,264.927 C32.598,264.937 32.607,264.947 32.615,264.957 C33.519,266.034 34.445,267.092 35.382,268.141 C35.666,268.459 35.955,268.773 36.242,269.088 C36.942,269.857 37.651,270.617 38.369,271.37 C38.659,271.674 38.947,271.979 39.239,272.28 C40.222,273.292 41.216,274.294 42.231,275.278 C42.233,275.28 42.236,275.283 42.238,275.285 C43.369,276.381 44.52,277.459 45.691,278.519 C48.032,280.639 50.45,282.688 52.942,284.666 C55.434,286.644 58.001,288.551 60.638,290.386 C61.957,291.304 63.293,292.204 64.647,293.087 C65.866,293.881 67.103,294.657 68.349,295.422 C68.707,295.642 69.069,295.859 69.43,296.076 C70.372,296.644 71.319,297.204 72.271,297.754 C72.648,297.972 73.024,298.191 73.404,298.406 C74.686,299.133 75.976,299.85 77.284,300.549 C77.57,300.702 77.835,300.884 78.076,301.091 C78.293,301.278 78.483,301.491 78.657,301.715 C78.709,301.781 78.754,301.851 78.801,301.921 C78.921,302.094 79.026,302.276 79.119,302.466 C79.156,302.542 79.195,302.615 79.228,302.694 C79.338,302.959 79.431,303.232 79.487,303.519 L89.907,357.643 C90.028,358.28 90.203,358.896 90.427,359.484 C90.539,359.778 90.664,360.066 90.8,360.347 C90.936,360.628 91.084,360.901 91.242,361.167 C91.4,361.433 91.57,361.691 91.75,361.941 C91.931,362.192 92.122,362.434 92.322,362.668 C92.549,362.933 92.792,363.182 93.043,363.423 C93.122,363.499 93.206,363.57 93.288,363.644 C93.469,363.807 93.654,363.966 93.846,364.116 C93.942,364.192 94.04,364.266 94.139,364.338 C94.336,364.482 94.538,364.618 94.744,364.749 C94.837,364.808 94.928,364.87 95.023,364.926 C95.322,365.103 95.628,365.27 95.944,365.418 C95.949,365.42 95.953,365.422 95.958,365.424 C96.274,365.571 96.6,365.7 96.931,365.816 C97.036,365.853 97.143,365.883 97.249,365.917 C97.485,365.992 97.724,366.061 97.966,366.119 C98.088,366.149 98.211,366.176 98.335,366.202 C98.58,366.252 98.828,366.293 99.079,366.326 C99.192,366.341 99.304,366.36 99.418,366.371 C99.779,366.408 100.143,366.431 100.512,366.432 C100.514,366.432 100.516,366.432 100.517,366.432 L135.704,366.432 C137.326,366.432 138.876,366.072 140.27,365.42 C140.828,365.159 141.36,364.852 141.863,364.503 C142.365,364.154 142.838,363.763 143.274,363.334 C143.929,362.691 144.503,361.963 144.979,361.166 C145.613,360.103 146.073,358.916 146.314,357.642 L152.01,327.551 L152.01,327.55 C152.057,327.3 152.132,327.062 152.219,326.832 C152.245,326.763 152.275,326.699 152.305,326.632 C152.378,326.467 152.459,326.308 152.551,326.155 C152.587,326.094 152.622,326.033 152.661,325.974 C152.794,325.776 152.937,325.586 153.099,325.415 C153.54,324.948 154.091,324.601 154.694,324.369 C154.752,324.346 154.81,324.325 154.869,324.304 C155.014,324.255 155.159,324.213 155.309,324.18 C155.423,324.154 155.54,324.138 155.657,324.121 C155.77,324.106 155.881,324.086 155.996,324.08 C156.241,324.065 156.49,324.066 156.743,324.096 C158.634,324.316 160.539,324.51 162.45,324.693 C162.928,324.739 163.407,324.784 163.886,324.827 C165.796,325.001 167.712,325.163 169.64,325.3 C169.649,325.301 169.659,325.301 169.668,325.302 C171.596,325.439 173.535,325.551 175.48,325.652 C175.97,325.677 176.46,325.701 176.951,325.725 C178.904,325.816 180.863,325.897 182.832,325.952 C185.788,326.035 188.761,326.076 191.751,326.076 C195.747,326.076 199.741,326.002 203.729,325.855 C205.771,325.78 207.811,325.684 209.848,325.569 C210.055,325.557 210.262,325.541 210.469,325.529 C212.32,325.421 214.169,325.302 216.015,325.162 C216.058,325.159 216.101,325.154 216.144,325.151 C220.192,324.843 224.227,324.459 228.243,323.999 C228.255,323.998 228.268,323.996 228.28,323.995 C230.117,323.784 231.949,323.559 233.778,323.318 C234.662,323.201 235.542,323.069 236.423,322.944 C237.393,322.807 238.365,322.679 239.332,322.532 C241.292,322.235 243.142,323.338 243.888,325.095 C243.898,325.118 243.913,325.138 243.922,325.161 C244.026,325.419 244.107,325.691 244.161,325.975 L247.158,341.809 L250.155,357.643 C251.12,362.742 255.576,366.433 260.765,366.433 L295.952,366.433 C295.954,366.433 295.956,366.433 295.957,366.433 C296.326,366.433 296.69,366.409 297.051,366.372 C297.165,366.36 297.277,366.342 297.39,366.327 C297.64,366.294 297.889,366.253 298.134,366.203 C298.257,366.178 298.38,366.15 298.502,366.121 C298.745,366.062 298.983,365.994 299.22,365.918 C299.326,365.884 299.433,365.854 299.537,365.817 C299.87,365.7 300.197,365.571 300.515,365.423 C300.517,365.422 300.518,365.421 300.52,365.421 C300.838,365.273 301.145,365.105 301.446,364.927 C301.541,364.871 301.632,364.809 301.725,364.75 C301.932,364.619 302.134,364.483 302.331,364.338 C302.429,364.266 302.526,364.192 302.622,364.117 C302.814,363.966 303,363.807 303.181,363.644 C303.262,363.571 303.346,363.5 303.425,363.424 C303.676,363.183 303.919,362.933 304.146,362.669 C304.235,362.566 304.315,362.454 304.4,362.347 C304.698,361.972 304.979,361.583 305.227,361.168 C305.544,360.637 305.818,360.074 306.042,359.485 C306.266,358.896 306.442,358.281 306.562,357.644 L308.934,345.087 L311.399,332.037 L312.945,323.853 L317.386,300.339 L317.386,300.339 L317.784,298.23 C318.513,297.869 318.807,297.723 319.536,297.362 C319.564,297.371 319.581,297.367 319.595,297.359 C319.608,297.352 319.618,297.342 319.631,297.335 C320.475,296.896 321.3,296.436 322.135,295.988 C323.008,295.518 323.891,295.059 324.755,294.578 C325.503,294.161 326.233,293.725 326.974,293.3 C327.906,292.765 328.846,292.24 329.765,291.693 C330.522,291.242 331.259,290.771 332.007,290.312 C332.889,289.77 333.78,289.237 334.65,288.683 C335.43,288.186 336.189,287.668 336.959,287.161 C337.776,286.623 338.604,286.094 339.41,285.545 C340.171,285.026 340.91,284.486 341.661,283.957 C342.453,283.399 343.256,282.85 344.035,282.281 C344.762,281.75 345.467,281.199 346.183,280.658 C346.964,280.069 347.756,279.489 348.525,278.888 C349.22,278.344 349.893,277.78 350.577,277.227 C351.342,276.609 352.118,276 352.87,275.37 C353.562,274.79 354.229,274.19 354.909,273.6 C355.629,272.975 356.361,272.36 357.068,271.724 C357.728,271.13 358.362,270.517 359.01,269.913 C359.712,269.259 360.426,268.615 361.114,267.95 C361.742,267.342 362.345,266.714 362.962,266.097 C363.643,265.415 364.335,264.744 365.001,264.05 C365.607,263.419 366.187,262.767 366.781,262.126 C367.43,261.426 368.091,260.735 368.724,260.023 C369.302,259.373 369.853,258.703 370.418,258.044 C371.039,257.319 371.673,256.605 372.278,255.869 C372.829,255.2 373.351,254.51 373.889,253.83 C374.48,253.083 375.084,252.346 375.659,251.587 C376.187,250.89 376.687,250.172 377.202,249.465 C377.756,248.704 378.323,247.952 378.861,247.179 C379.364,246.456 379.837,245.713 380.325,244.98 C380.844,244.201 381.377,243.432 381.879,242.642 C382.503,241.661 383.073,240.644 383.697,239.664 C384.067,239.082 384.414,238.487 384.76,237.891 C386.66,234.62 389.658,232.128 393.262,230.974 L393.384,230.935 L393.385,230.935 L410.623,225.414 L427.174,220.113 C435.74,217.369 441.551,209.405 441.551,200.411 L441.551,165.628 C441.551,162.555 440.859,159.609 439.624,156.944 C439.403,156.472 439.167,156.009 438.914,155.556 Z" id="Path"></path>
                <path d="M273.717,35.411 C274.787,30.331 278.301,26.107 283.021,23.947 C301.157,15.646 347.365,-4.331 359.243,1.892 C374.119,9.684 366.327,93.802 343.659,106.641 C321.764,119.041 258.234,108.89 273.717,35.411 Z" id="Path"></path>
            </g>
            <circle id="Oval" fill="#FFB125" cx="230.68" cy="101.818" r="94.25"></circle>
            <path d="M415.936,139.637 C405.592,139.637 380.545,148.161 350.569,161.883 C348.932,162.632 347.751,164.046 347.41,165.663 C343.042,186.395 345.378,203.081 354.168,213.915 C355.196,215.182 356.323,216.374 357.537,217.489 C358.951,218.788 361.23,218.06 361.7,216.199 C372.119,174.94 422.677,139.637 415.936,139.637 Z" id="Path" fill="#FF7BAC"></path>
            <path d="M298.48,36.354 L165.22,169.615 C202.112,205.258 260.91,204.877 297.326,168.461 C333.742,132.045 334.123,73.246 298.48,36.354 Z" id="Path" fill="#FF901D"></path>
            <path d="M228.513,148.579 C212.225,148.316 201.191,139.515 201.191,133.079 C201.191,129.926 203.949,125.591 207.233,125.591 C211.568,125.591 215.114,134.786 228.513,135.837 L228.513,104.968 C216.691,100.765 203.555,96.036 203.555,79.222 C203.555,62.671 216.034,56.103 228.513,54.789 L228.513,50.98 C228.513,49.404 230.089,47.959 232.323,47.959 C234.293,47.959 236.264,49.404 236.264,50.98 L236.264,54.527 C245.196,54.79 257.807,57.548 257.807,63.985 C257.807,66.481 255.968,71.472 252.027,71.472 C248.875,71.472 245.459,67.269 236.264,66.612 L236.264,93.277 C247.692,97.48 260.171,103.26 260.171,121.125 C260.171,137.282 250.451,146.214 236.264,148.185 L236.264,152.651 C236.264,154.227 234.294,155.672 232.323,155.672 C230.09,155.672 228.513,154.227 228.513,152.651 L228.513,148.579 L228.513,148.579 Z M229.302,90.781 L229.302,66.875 C221.946,67.794 216.692,71.078 216.692,77.909 C216.691,85.396 222.339,88.154 229.302,90.781 Z M235.475,107.858 L235.475,135.574 C242.568,134.26 247.034,130.057 247.034,122.569 C247.035,114.294 241.912,110.616 235.475,107.858 Z" id="Shape" fill="#DD7219"></path>
            <path d="M429.954,273.063 C429.954,268.947 426.618,265.612 422.503,265.612 C418.388,265.612 415.052,268.948 415.052,273.063 C415.052,278.28 410.808,282.524 405.591,282.524 C400.375,282.524 396.13,278.28 396.13,273.063 C396.13,268.947 392.794,265.612 388.679,265.612 C384.564,265.612 381.228,268.948 381.228,273.063 C381.228,286.497 392.158,297.426 405.591,297.426 C419.024,297.426 429.954,286.496 429.954,273.063 Z" id="Path" fill="#000000"></path>
            <path d="M492.444,266.83 L471.472,260.112 C468.786,259.251 466.669,257.107 465.81,254.376 C461.39,240.323 454.72,227.13 445.985,215.162 C442.004,209.707 437.577,204.498 432.741,199.539 C432.741,199.54 432.741,199.54 432.741,199.54 C435.835,185.967 437.517,170.606 437.298,157.334 C436.986,138.349 433.192,127.214 425.7,123.29 C421.665,121.174 409.385,114.746 342.918,145.172 C341.344,145.892 339.874,146.779 338.513,147.795 C334.032,146.591 329.452,145.477 324.844,144.477 C324.289,144.356 323.717,144.249 323.158,144.131 L323.158,144.131 C328.544,132.365 331.689,119.586 332.28,106.394 C332.464,102.282 329.281,98.8 325.169,98.617 C321.068,98.413 317.575,101.615 317.392,105.727 C316.421,127.418 307.423,147.827 292.057,163.194 C282.876,172.375 272.126,179.044 260.669,183.244 C240.8,180.456 220.562,180.456 200.693,183.244 C189.235,179.044 178.486,172.375 169.305,163.194 C152.911,146.8 143.882,125.003 143.882,101.818 C143.882,78.632 152.911,56.836 169.305,40.442 C185.699,24.047 207.497,15.018 230.681,15.018 C253.865,15.018 275.663,24.047 292.057,40.442 C298.645,47.03 304.089,54.548 308.238,62.785 C310.089,66.461 314.57,67.941 318.245,66.089 C321.921,64.239 323.4,59.758 321.549,56.083 C316.686,46.424 310.309,37.617 302.596,29.903 C283.387,10.694 257.847,0.115 230.682,0.115 C203.517,0.115 177.977,10.694 158.768,29.903 C139.559,49.113 128.98,74.652 128.98,101.817 C128.98,128.982 139.559,154.522 158.768,173.731 C164.309,179.272 170.337,184.037 176.713,188.029 C176.715,188.029 176.717,188.028 176.719,188.028 C172.086,189.232 167.488,190.584 162.941,192.104 C159.038,193.409 156.932,197.63 158.237,201.534 C159.541,205.437 163.764,207.543 167.666,206.239 C208.302,192.654 253.062,192.654 293.698,206.239 C294.482,206.501 295.278,206.625 296.061,206.625 C299.178,206.625 302.084,204.653 303.127,201.534 C304.432,197.631 302.326,193.409 298.423,192.104 C293.876,190.584 289.278,189.231 284.645,188.028 C284.647,188.028 284.649,188.029 284.651,188.029 C291.028,184.037 297.055,179.272 302.596,173.731 C307.498,168.829 311.825,163.476 315.582,157.787 C317.636,158.186 319.675,158.604 321.684,159.04 C324.36,159.621 327.024,160.245 329.664,160.9 C329.581,161.224 329.496,161.547 329.427,161.876 C325.793,179.121 326.029,194.373 330.128,207.206 C333.812,218.741 340.461,228.086 349.888,234.983 C360.999,243.111 374.413,246.622 386.564,246.622 C395.709,246.622 404.14,244.632 410.332,241.125 C417.336,237.158 423.204,228.799 427.849,216.249 C429.996,218.755 432.031,221.322 433.949,223.95 C441.726,234.604 447.663,246.346 451.595,258.848 C453.904,266.191 459.636,271.969 466.927,274.306 L487.899,281.024 C493.402,282.787 497.099,287.852 497.099,293.63 L497.099,328.405 C497.099,334.183 493.402,339.248 487.899,341.011 L454.11,351.834 C448.704,353.567 444.129,357.282 441.228,362.296 C427.953,385.238 407.082,404.223 379.191,418.724 C375.969,420.401 373.737,423.4 373.065,426.954 L362.243,484.257 C361.944,485.836 360.561,486.981 358.954,486.981 L323.767,486.981 C322.16,486.981 320.777,485.835 320.478,484.257 L314.484,452.588 C313.304,446.357 307.46,442.218 301.17,443.171 C286.013,445.463 270.395,446.624 254.752,446.624 C243.114,446.624 231.625,445.975 220.602,444.694 C214.507,443.993 208.829,448.148 207.69,454.166 L201.994,484.257 C201.695,485.836 200.312,486.981 198.705,486.981 L163.518,486.981 C161.911,486.981 160.528,485.835 160.225,484.233 L149.805,430.111 C149.134,426.624 146.944,423.659 143.793,421.976 C96.25,396.594 71.12,354.191 71.12,299.351 C71.12,271.643 77.182,247.142 89.137,226.526 C100.293,207.287 116.587,191.38 137.566,179.245 C141.128,177.184 142.345,172.626 140.285,169.063 C138.225,165.501 133.667,164.286 130.104,166.344 C89.425,189.875 64.89,226.18 58.135,272.289 L58.135,272.288 C57.418,272.223 56.7,272.161 55.985,272.087 C56.115,267.112 55.215,262.092 53.255,257.22 C48.932,246.474 40.052,238.718 30.631,237.461 C23.207,236.467 16.142,239.619 11.239,246.097 C4.13,255.491 5.289,262.925 7.512,267.507 C11.265,275.24 20.912,280.71 36.921,284.149 C36.481,284.808 35.997,285.47 35.467,286.135 C26.008,297.998 14.864,300.621 7.628,300.868 C3.392,301.012 0,304.413 0,308.652 L0,308.688 C0,312.869 3.299,316.279 7.476,316.47 C8.011,316.495 8.57,316.508 9.152,316.508 C18.308,316.508 33.003,313.131 47.121,295.428 C49.35,292.634 51.166,289.686 52.562,286.64 C53.968,286.799 55.319,286.935 56.613,287.055 C56.613,287.052 56.613,287.05 56.614,287.047 C56.36,291.085 56.219,295.182 56.219,299.351 C56.219,330.379 63.616,358.044 78.203,381.581 C91.653,403.281 110.91,421.049 135.458,434.411 L145.588,487.027 C147.217,495.635 154.758,501.883 163.519,501.883 L198.706,501.883 C207.467,501.883 215.008,495.635 216.637,487.027 L221.787,459.819 C232.483,460.952 243.557,461.526 254.752,461.526 C270.112,461.526 285.454,460.456 300.406,458.344 L305.835,487.029 C307.465,495.637 315.006,501.884 323.766,501.884 L358.953,501.884 C367.714,501.884 375.255,495.636 376.885,487.025 L387.422,431.234 C417.19,415.493 439.628,394.815 454.126,369.759 C455.171,367.953 456.78,366.628 458.656,366.027 L492.444,355.204 C504.141,351.455 512,340.686 512,328.403 L512,293.628 C512,281.346 504.141,270.577 492.444,266.83 Z M421.278,178.273 C418.41,202.799 410.717,223.779 402.987,228.157 C394.201,233.134 373.916,234.095 358.686,222.954 C343.438,211.8 338.363,191.742 344.008,164.948 C344.008,164.947 344.008,164.947 344.008,164.947 C344.575,162.256 346.487,159.928 349.122,158.722 C386.426,141.646 407.933,136.061 415.923,136.061 C417.129,136.061 418.027,136.188 418.625,136.422 C421.025,138.979 424.173,153.521 421.278,178.273 Z M20.921,261.001 C20.15,259.411 21.97,256.616 23.124,255.09 C24.953,252.674 26.638,252.18 27.911,252.18 C28.18,252.18 28.431,252.202 28.661,252.233 C32.087,252.69 36.887,256.46 39.43,262.781 C40.029,264.269 40.807,266.734 40.989,269.808 C30.674,267.67 22.66,264.589 20.921,261.001 Z" id="Shape" fill="#000000"></path>
        </g>
    </g>
</svg>